# xmcd
#
# Track frame offsets:
#	150
#	18126
#	32625
#	45991
#	59921
#	75521
#	88298
#	103317
#	115541
#	128141
#	141575
#	155224
#	168937
#	184380
#	194077
#	208540
#	222265
#	234534
#	249926
#	261657
#	282036
#	300023
#	314159
#	325332
#
# Disc length: 4505 seconds
#
# Revision: 1
# Processed by: cddbd v1.5.2PL0 Copyright (c) Steve Scherf et al.
# Submitted via: audiograbber 1.83.01
#
DISCID=66119718
DTITLE=Various Artist - A Touch of Country
DYEAR=1900
DGENRE=Country
TTITLE0=Johnny Lee - Lookin´vor Love
TTITLE1=The Bellamy Brothers - If i said you have a beautyfull Body
TTITLE2=The Carpenders - Sweet sweet smile
TTITLE3=Johnny Carver - Tie a yellowRibbon Round the ole ole Tree
TTITLE4=Juice Newton - Queen of Hearts
TTITLE5=The Bellamy Brothers - Let your Love flow
TTITLE6=B J Thomas - Hey won´t you play another ...
TTITLE7=Tammy Wynette - Stand by your man 
TTITLE8=Wanda Jackson - Crazy
TTITLE9=Lacy J Dalton - Dream Baby 
TTITLE10=Mel MC Daniel - Baybie´s got her blue Jeans on 
TTITLE11=Johnny Lee - Picki´n up strangers
TTITLE12=Judy Rodman - I´ll be your Baby tonight
TTITLE13=Lynn Anderson - Snowbird
TTITLE14=James Taylor - Everyday
TTITLE15=Lee Greenwood - Don´t underestimate my love for you
TTITLE16=Charlie Rich - The most Beautiful Girl
TTITLE17=Melba Montgomery - No Charge 
TTITLE18=The Everly Brothers - So sad (To Watch good love go bad)
TTITLE19=Emmylou Harris and Graham Parsons - Love Hurts
TTITLE20=Deborah Allen - Baby i Lied
TTITLE21=Lee Greenwood - I O U
TTITLE22=Slim Whiteman - The Wayward Wind
TTITLE23=Glen Campbell - By the Time i get to Phoenix
EXTD=
EXTT0=
EXTT1=
EXTT2=
EXTT3=
EXTT4=
EXTT5=
EXTT6=
EXTT7=
EXTT8=
EXTT9=
EXTT10=
EXTT11=
EXTT12=
EXTT13=
EXTT14=
EXTT15=
EXTT16=
EXTT17=
EXTT18=
EXTT19=
EXTT20=
EXTT21=
EXTT22=
EXTT23=
PLAYORDER=
